<svg xmlns="http://www.w3.org/2000/svg" xmlns:xlink="http://www.w3.org/1999/xlink" width="500" zoomAndPan="magnify" viewBox="0 0 375 374.999991" height="500" preserveAspectRatio="xMidYMid meet" version="1.0"><defs><g/></defs><g fill="#f49619" fill-opacity="1"><g transform="translate(116.06219, 251.545707)"><g><path d="M 143.1875 -111.78125 L 143.1875 -108.625 C 141.1875 -108.195312 138.976562 -107.007812 136.5625 -105.0625 C 134.144531 -103.113281 132.195312 -99.722656 130.71875 -94.890625 L 100.875 0.796875 C 100.664062 0.796875 100.457031 0.796875 100.25 0.796875 C 100.039062 0.796875 99.832031 0.796875 99.625 0.796875 C 99.40625 0.796875 99.191406 0.796875 98.984375 0.796875 C 98.773438 0.796875 98.566406 0.796875 98.359375 0.796875 L 64.890625 -98.515625 C 63.515625 -102.617188 61.984375 -105.300781 60.296875 -106.5625 C 58.617188 -107.820312 57.046875 -108.507812 55.578125 -108.625 L 55.578125 -111.78125 C 57.460938 -111.675781 59.828125 -111.566406 62.671875 -111.453125 C 65.515625 -111.347656 68.253906 -111.296875 70.890625 -111.296875 C 74.992188 -111.296875 78.832031 -111.347656 82.40625 -111.453125 C 85.988281 -111.566406 88.882812 -111.675781 91.09375 -111.78125 L 91.09375 -108.625 C 87.9375 -108.507812 85.4375 -108.1875 83.59375 -107.65625 C 81.75 -107.132812 80.695312 -105.976562 80.4375 -104.1875 C 80.175781 -102.40625 80.675781 -99.460938 81.9375 -95.359375 L 105.453125 -22.578125 L 103.25 -20.6875 L 124.09375 -86.203125 C 125.988281 -91.992188 126.851562 -96.492188 126.6875 -99.703125 C 126.53125 -102.910156 125.347656 -105.171875 123.140625 -106.484375 C 120.929688 -107.796875 117.617188 -108.507812 113.203125 -108.625 L 113.203125 -111.78125 C 116.253906 -111.675781 119.359375 -111.566406 122.515625 -111.453125 C 125.671875 -111.347656 128.617188 -111.296875 131.359375 -111.296875 C 134.085938 -111.296875 136.347656 -111.347656 138.140625 -111.453125 C 139.929688 -111.566406 141.613281 -111.675781 143.1875 -111.78125 Z M 32.84375 -111.78125 L 32.84375 -108.625 C 30.101562 -108.40625 28.128906 -107.875 26.921875 -107.03125 C 25.710938 -106.195312 25.132812 -104.859375 25.1875 -103.015625 C 25.238281 -101.171875 25.789062 -98.617188 26.84375 -95.359375 L 51.3125 -20.6875 L 47.359375 -16.734375 L 69.46875 -87.3125 L 71.828125 -83.515625 L 45.78125 0.796875 C 45.570312 0.796875 45.363281 0.796875 45.15625 0.796875 C 44.945312 0.796875 44.734375 0.796875 44.515625 0.796875 C 44.304688 0.796875 44.097656 0.796875 43.890625 0.796875 C 43.679688 0.796875 43.46875 0.796875 43.25 0.796875 L 9.78125 -98.515625 C 8.414062 -102.617188 6.679688 -105.300781 4.578125 -106.5625 C 2.472656 -107.820312 0.578125 -108.507812 -1.109375 -108.625 L -1.109375 -111.78125 C 0.992188 -111.675781 3.597656 -111.566406 6.703125 -111.453125 C 9.804688 -111.347656 12.832031 -111.296875 15.78125 -111.296875 C 19.257812 -111.296875 22.5 -111.347656 25.5 -111.453125 C 28.5 -111.566406 30.945312 -111.675781 32.84375 -111.78125 Z M 32.84375 -111.78125 "/></g></g></g></svg>