<svg xmlns="http://www.w3.org/2000/svg" xmlns:xlink="http://www.w3.org/1999/xlink" width="500" zoomAndPan="magnify" viewBox="0 0 375 374.999991" height="500" preserveAspectRatio="xMidYMid meet" version="1.0"><defs><g/></defs><g fill="#000000" fill-opacity="1"><g transform="translate(259.483699, 275.130389)"><g><path d="M 8.296875 -13.359375 C 6.679688 -13.359375 5.40625 -12.820312 4.46875 -11.75 C 3.539062 -10.675781 3.078125 -9.203125 3.078125 -7.328125 C 3.078125 -5.410156 3.523438 -3.925781 4.421875 -2.875 C 5.328125 -1.832031 6.613281 -1.3125 8.28125 -1.3125 C 9.300781 -1.3125 10.46875 -1.492188 11.78125 -1.859375 L 11.78125 -0.375 C 10.757812 0.0078125 9.503906 0.203125 8.015625 0.203125 C 5.859375 0.203125 4.191406 -0.453125 3.015625 -1.765625 C 1.835938 -3.078125 1.25 -4.941406 1.25 -7.359375 C 1.25 -8.867188 1.53125 -10.191406 2.09375 -11.328125 C 2.664062 -12.460938 3.484375 -13.335938 4.546875 -13.953125 C 5.617188 -14.566406 6.875 -14.875 8.3125 -14.875 C 9.851562 -14.875 11.195312 -14.59375 12.34375 -14.03125 L 11.625 -12.578125 C 10.519531 -13.097656 9.410156 -13.359375 8.296875 -13.359375 Z M 8.296875 -13.359375 "/></g></g></g><g fill="#4c7031" fill-opacity="1"><g transform="translate(43.622843, 262.471021)"><g><path d="M 98.71875 -174.15625 C 114.738281 -174.15625 128.40625 -171.375 139.71875 -165.8125 L 139.71875 -126.46875 L 139.453125 -126.21875 C 134.660156 -133.582031 124.550781 -138.46875 109.125 -140.875 C 104.582031 -141.644531 98.835938 -142.03125 91.890625 -142.03125 C 84.953125 -142.03125 78.140625 -140.722656 71.453125 -138.109375 C 64.773438 -135.492188 59.296875 -131.785156 55.015625 -126.984375 C 46.703125 -117.648438 42.546875 -104.328125 42.546875 -87.015625 C 42.546875 -66.878906 47.816406 -51.882812 58.359375 -42.03125 C 67.097656 -33.800781 78.664062 -29.6875 93.0625 -29.6875 C 109.34375 -29.6875 122.535156 -33.160156 132.640625 -40.109375 C 136.328125 -42.585938 139.457031 -45.671875 142.03125 -49.359375 L 142.40625 -49.09375 L 142.40625 -13.109375 C 129.300781 -2.222656 111.648438 3.21875 89.453125 3.21875 C 63.316406 3.21875 42.835938 -5.09375 28.015625 -21.71875 C 13.796875 -37.570312 6.6875 -58.566406 6.6875 -84.703125 C 6.6875 -112.378906 14.484375 -134.1875 30.078125 -150.125 C 45.835938 -166.144531 68.71875 -174.15625 98.71875 -174.15625 Z M 98.71875 -174.15625 "/></g></g></g><g fill="#4c7031" fill-opacity="1"><g transform="translate(331.414759, 112.57393)"><g><path d="M -162.640625 102.875 C -161.015625 99.96875 -160.203125 93 -160.203125 81.96875 L -160.203125 42.203125 C -160.203125 30.140625 -153.960938 19.664062 -141.484375 10.78125 C -128.566406 1.457031 -112.742188 -3.203125 -94.015625 -3.203125 C -68.023438 -3.203125 -47.289062 4.960938 -31.8125 21.296875 C -16.84375 36.859375 -9.359375 56.695312 -9.359375 80.8125 C -9.359375 106.457031 -16.96875 127.832031 -32.1875 144.9375 C -49.207031 164.175781 -72.640625 173.796875 -102.484375 173.796875 C -122.410156 173.796875 -138.1875 169.945312 -149.8125 162.25 L -147.765625 124.421875 L -146.734375 124.15625 C -143.742188 129.375 -137.84375 133.648438 -129.03125 136.984375 C -120.65625 140.148438 -111.867188 141.734375 -102.671875 141.734375 C -93.484375 141.734375 -85.445312 140.28125 -78.5625 137.375 C -71.675781 134.46875 -65.835938 130.320312 -61.046875 124.9375 C -50.960938 113.90625 -45.921875 99.320312 -45.921875 81.1875 C -45.921875 65.375 -50.367188 52.675781 -59.265625 43.09375 C -68.148438 33.601562 -79.609375 28.859375 -93.640625 28.859375 C -109.109375 28.859375 -119.539062 32.878906 -124.9375 40.921875 C -126.644531 43.484375 -127.5 46.390625 -127.5 49.640625 L -127.5 70.9375 L -110.953125 70.9375 C -102.054688 70.9375 -97.222656 70.164062 -96.453125 68.625 L -96.078125 68.75 L -94.921875 102.234375 C -97.316406 101.546875 -107.019531 101.203125 -124.03125 101.203125 L -139.171875 101.203125 C -148.578125 101.203125 -156.269531 101.84375 -162.25 103.125 Z M -162.640625 102.875 "/></g></g></g><g fill="#f49619" fill-opacity="1"><g transform="translate(116.06219, 251.5457)"><g><path d="M 143.1875 -111.78125 L 143.1875 -108.625 C 141.1875 -108.195312 138.976562 -107.007812 136.5625 -105.0625 C 134.144531 -103.113281 132.195312 -99.722656 130.71875 -94.890625 L 100.875 0.796875 C 100.664062 0.796875 100.457031 0.796875 100.25 0.796875 C 100.039062 0.796875 99.832031 0.796875 99.625 0.796875 C 99.40625 0.796875 99.191406 0.796875 98.984375 0.796875 C 98.773438 0.796875 98.566406 0.796875 98.359375 0.796875 L 64.890625 -98.515625 C 63.515625 -102.617188 61.984375 -105.300781 60.296875 -106.5625 C 58.617188 -107.820312 57.046875 -108.507812 55.578125 -108.625 L 55.578125 -111.78125 C 57.460938 -111.675781 59.828125 -111.566406 62.671875 -111.453125 C 65.515625 -111.347656 68.253906 -111.296875 70.890625 -111.296875 C 74.992188 -111.296875 78.832031 -111.347656 82.40625 -111.453125 C 85.988281 -111.566406 88.882812 -111.675781 91.09375 -111.78125 L 91.09375 -108.625 C 87.9375 -108.507812 85.4375 -108.1875 83.59375 -107.65625 C 81.75 -107.132812 80.695312 -105.976562 80.4375 -104.1875 C 80.175781 -102.40625 80.675781 -99.460938 81.9375 -95.359375 L 105.453125 -22.578125 L 103.25 -20.6875 L 124.09375 -86.203125 C 125.988281 -91.992188 126.851562 -96.492188 126.6875 -99.703125 C 126.53125 -102.910156 125.347656 -105.171875 123.140625 -106.484375 C 120.929688 -107.796875 117.617188 -108.507812 113.203125 -108.625 L 113.203125 -111.78125 C 116.253906 -111.675781 119.359375 -111.566406 122.515625 -111.453125 C 125.671875 -111.347656 128.617188 -111.296875 131.359375 -111.296875 C 134.085938 -111.296875 136.347656 -111.347656 138.140625 -111.453125 C 139.929688 -111.566406 141.613281 -111.675781 143.1875 -111.78125 Z M 32.84375 -111.78125 L 32.84375 -108.625 C 30.101562 -108.40625 28.128906 -107.875 26.921875 -107.03125 C 25.710938 -106.195312 25.132812 -104.859375 25.1875 -103.015625 C 25.238281 -101.171875 25.789062 -98.617188 26.84375 -95.359375 L 51.3125 -20.6875 L 47.359375 -16.734375 L 69.46875 -87.3125 L 71.828125 -83.515625 L 45.78125 0.796875 C 45.570312 0.796875 45.363281 0.796875 45.15625 0.796875 C 44.945312 0.796875 44.734375 0.796875 44.515625 0.796875 C 44.304688 0.796875 44.097656 0.796875 43.890625 0.796875 C 43.679688 0.796875 43.46875 0.796875 43.25 0.796875 L 9.78125 -98.515625 C 8.414062 -102.617188 6.679688 -105.300781 4.578125 -106.5625 C 2.472656 -107.820312 0.578125 -108.507812 -1.109375 -108.625 L -1.109375 -111.78125 C 0.992188 -111.675781 3.597656 -111.566406 6.703125 -111.453125 C 9.804688 -111.347656 12.832031 -111.296875 15.78125 -111.296875 C 19.257812 -111.296875 22.5 -111.347656 25.5 -111.453125 C 28.5 -111.566406 30.945312 -111.675781 32.84375 -111.78125 Z M 32.84375 -111.78125 "/></g></g></g></svg>