<svg xmlns="http://www.w3.org/2000/svg" xmlns:xlink="http://www.w3.org/1999/xlink" width="500" zoomAndPan="magnify" viewBox="0 0 375 374.999991" height="500" preserveAspectRatio="xMidYMid meet" version="1.0"><defs><g/></defs><g fill="#000000" fill-opacity="1"><g transform="translate(259.483699, 275.130389)"><g><path d="M 8.296875 -13.359375 C 6.679688 -13.359375 5.40625 -12.820312 4.46875 -11.75 C 3.539062 -10.675781 3.078125 -9.203125 3.078125 -7.328125 C 3.078125 -5.410156 3.523438 -3.925781 4.421875 -2.875 C 5.328125 -1.832031 6.613281 -1.3125 8.28125 -1.3125 C 9.300781 -1.3125 10.46875 -1.492188 11.78125 -1.859375 L 11.78125 -0.375 C 10.757812 0.0078125 9.503906 0.203125 8.015625 0.203125 C 5.859375 0.203125 4.191406 -0.453125 3.015625 -1.765625 C 1.835938 -3.078125 1.25 -4.941406 1.25 -7.359375 C 1.25 -8.867188 1.53125 -10.191406 2.09375 -11.328125 C 2.664062 -12.460938 3.484375 -13.335938 4.546875 -13.953125 C 5.617188 -14.566406 6.875 -14.875 8.3125 -14.875 C 9.851562 -14.875 11.195312 -14.59375 12.34375 -14.03125 L 11.625 -12.578125 C 10.519531 -13.097656 9.410156 -13.359375 8.296875 -13.359375 Z M 8.296875 -13.359375 "/></g></g></g><g fill="#4c7031" fill-opacity="1"><g transform="translate(43.622843, 262.471021)"><g><path d="M 98.71875 -174.15625 C 114.738281 -174.15625 128.40625 -171.375 139.71875 -165.8125 L 139.71875 -126.46875 L 139.453125 -126.21875 C 134.660156 -133.582031 124.550781 -138.46875 109.125 -140.875 C 104.582031 -141.644531 98.835938 -142.03125 91.890625 -142.03125 C 84.953125 -142.03125 78.140625 -140.722656 71.453125 -138.109375 C 64.773438 -135.492188 59.296875 -131.785156 55.015625 -126.984375 C 46.703125 -117.648438 42.546875 -104.328125 42.546875 -87.015625 C 42.546875 -66.878906 47.816406 -51.882812 58.359375 -42.03125 C 67.097656 -33.800781 78.664062 -29.6875 93.0625 -29.6875 C 109.34375 -29.6875 122.535156 -33.160156 132.640625 -40.109375 C 136.328125 -42.585938 139.457031 -45.671875 142.03125 -49.359375 L 142.40625 -49.09375 L 142.40625 -13.109375 C 129.300781 -2.222656 111.648438 3.21875 89.453125 3.21875 C 63.316406 3.21875 42.835938 -5.09375 28.015625 -21.71875 C 13.796875 -37.570312 6.6875 -58.566406 6.6875 -84.703125 C 6.6875 -112.378906 14.484375 -134.1875 30.078125 -150.125 C 45.835938 -166.144531 68.71875 -174.15625 98.71875 -174.15625 Z M 98.71875 -174.15625 "/></g></g></g><g fill="#4c7031" fill-opacity="1"><g transform="translate(331.414759, 112.57393)"><g><path d="M -162.640625 102.875 C -161.015625 99.96875 -160.203125 93 -160.203125 81.96875 L -160.203125 42.203125 C -160.203125 30.140625 -153.960938 19.664062 -141.484375 10.78125 C -128.566406 1.457031 -112.742188 -3.203125 -94.015625 -3.203125 C -68.023438 -3.203125 -47.289062 4.960938 -31.8125 21.296875 C -16.84375 36.859375 -9.359375 56.695312 -9.359375 80.8125 C -9.359375 106.457031 -16.96875 127.832031 -32.1875 144.9375 C -49.207031 164.175781 -72.640625 173.796875 -102.484375 173.796875 C -122.410156 173.796875 -138.1875 169.945312 -149.8125 162.25 L -147.765625 124.421875 L -146.734375 124.15625 C -143.742188 129.375 -137.84375 133.648438 -129.03125 136.984375 C -120.65625 140.148438 -111.867188 141.734375 -102.671875 141.734375 C -93.484375 141.734375 -85.445312 140.28125 -78.5625 137.375 C -71.675781 134.46875 -65.835938 130.320312 -61.046875 124.9375 C -50.960938 113.90625 -45.921875 99.320312 -45.921875 81.1875 C -45.921875 65.375 -50.367188 52.675781 -59.265625 43.09375 C -68.148438 33.601562 -79.609375 28.859375 -93.640625 28.859375 C -109.109375 28.859375 -119.539062 32.878906 -124.9375 40.921875 C -126.644531 43.484375 -127.5 46.390625 -127.5 49.640625 L -127.5 70.9375 L -110.953125 70.9375 C -102.054688 70.9375 -97.222656 70.164062 -96.453125 68.625 L -96.078125 68.75 L -94.921875 102.234375 C -97.316406 101.546875 -107.019531 101.203125 -124.03125 101.203125 L -139.171875 101.203125 C -148.578125 101.203125 -156.269531 101.84375 -162.25 103.125 Z M -162.640625 102.875 "/></g></g></g></svg>